# xmcd
#
# Track frame offsets:
#	150
#	18164
#	31496
#	49356
#	69624
#	103961
#	120078
#	134749
#	153342
#
# Disc length: 2437 seconds
#
# Revision: 1
# Processed by: cddbd v1.5.2PL0 Copyright (c) Steve Scherf et al.
# Submitted via: audiograbber 1.83.01
#
DISCID=79098309
DTITLE=Stagger Lee - On the Ole Side of Town
DYEAR=2006
DGENRE=Country
TTITLE0=Hot As They Come
TTITLE1=Whiskey Takes Control
TTITLE2=If You Wanna Get to Heaven
TTITLE3=On the Ole Side of Town
TTITLE4=Wall to Wall, Back to Back
TTITLE5=She´s the Best Thing
TTITLE6=Heartache Disguise
TTITLE7=Stagger Lee
TTITLE8=16 Tons
EXTD=
EXTT0=
EXTT1=
EXTT2=
EXTT3=
EXTT4=
EXTT5=
EXTT6=
EXTT7=
EXTT8=
PLAYORDER=
